<?xml version="1.0" encoding="utf-8"?>
<!-- Generator: Adobe Illustrator 21.0.0, SVG Export Plug-In . SVG Version: 6.00 Build 0)  -->
<svg version="1.1" id="Layer_1" xmlns="http://www.w3.org/2000/svg" xmlns:xlink="http://www.w3.org/1999/xlink" x="0px" y="0px"
	 width="325.4px" height="77.2px" viewBox="0 0 325.4 77.2" style="enable-background:new 0 0 325.4 77.2;" xml:space="preserve">
<style type="text/css">
	.st0{fill:#006699;}
	.st1{fill:#0099CC;}
	.st2{font-family:'Arial-Black';}
	.st3{font-size:25.3537px;}
	.st4{fill:url(#SVGID_1_);}
	.st5{fill:url(#SVGID_2_);}
	.st6{fill:url(#SVGID_3_);}
	.st7{fill:url(#SVGID_4_);}
	.st8{fill:url(#SVGID_5_);}
	.st9{fill:url(#SVGID_6_);}
	.st10{fill:url(#SVGID_7_);}
	.st11{fill:url(#SVGID_8_);}
</style>
<g>
	<path id="Qloud_2_" class="st0" d="M24.8,54.7c-8.1-2.5-14-10.1-14-19c0-11,8.9-19.9,19.9-19.9s19.9,8.9,19.9,19.9
		c0,0.7,0,1.5-0.1,2.2h5.7c0.1-0.7,0.1-1.5,0.1-2.2c0-14.1-11.5-25.5-25.5-25.5S5.1,21.7,5.1,35.7c0,12.1,8.4,22.2,19.7,24.8
		C24.8,60.5,24.8,54.7,24.8,54.7z"/>
	<text transform="matrix(1 0 0 1 29.0996 60.5)" class="st1 st2 st3">OBP</text>
</g>
<g>
	<linearGradient id="SVGID_1_" gradientUnits="userSpaceOnUse" x1="111.9971" y1="55.6757" x2="111.9971" y2="21.5243">
		<stop  offset="0" style="stop-color:#D2D2D2"/>
		<stop  offset="1" style="stop-color:#FFFFFF"/>
	</linearGradient>
	<path class="st4" d="M121.9,49.9c1.9,1.3,3.7,2.3,5.3,2.9l-1.2,2.9c-2.2-0.8-4.5-2.1-6.7-3.8c-2.3,1.3-4.9,1.9-7.7,1.9
		c-2.8,0-5.4-0.7-7.7-2c-2.3-1.4-4.1-3.3-5.3-5.7c-1.2-2.5-1.9-5.2-1.9-8.3c0-3.1,0.6-5.9,1.9-8.4c1.2-2.5,3-4.4,5.3-5.8
		c2.3-1.3,4.9-2,7.7-2c2.9,0,5.5,0.7,7.8,2.1c2.3,1.4,4.1,3.3,5.3,5.7c1.2,2.5,1.8,5.2,1.8,8.3c0,2.6-0.4,4.9-1.2,6.9
		C124.7,46.6,123.5,48.4,121.9,49.9z M112.8,44.6c2.4,0.7,4.3,1.7,5.9,3c2.4-2.2,3.6-5.5,3.6-10c0-2.5-0.4-4.7-1.3-6.6
		c-0.9-1.9-2.1-3.3-3.8-4.4c-1.7-1-3.5-1.6-5.6-1.6c-3.1,0-5.6,1.1-7.7,3.2c-2,2.1-3,5.2-3,9.4c0,4.1,1,7.2,3,9.3
		c2,2.2,4.6,3.3,7.7,3.3c1.5,0,2.9-0.3,4.2-0.8c-1.3-0.8-2.7-1.4-4.1-1.8L112.8,44.6z"/>
	<linearGradient id="SVGID_2_" gradientUnits="userSpaceOnUse" x1="133.4958" y1="53.2519" x2="133.4958" y2="22.077">
		<stop  offset="0" style="stop-color:#D2D2D2"/>
		<stop  offset="1" style="stop-color:#FFFFFF"/>
	</linearGradient>
	<path class="st5" d="M131.6,53.3V22.1h3.8v31.2H131.6z"/>
	<linearGradient id="SVGID_3_" gradientUnits="userSpaceOnUse" x1="150.4976" y1="53.7626" x2="150.4976" y2="30.1581">
		<stop  offset="0" style="stop-color:#D2D2D2"/>
		<stop  offset="1" style="stop-color:#FFFFFF"/>
	</linearGradient>
	<path class="st6" d="M139.9,42c0-4.2,1.2-7.3,3.5-9.3c1.9-1.7,4.3-2.5,7.1-2.5c3.1,0,5.6,1,7.6,3.1c2,2,3,4.8,3,8.4
		c0,2.9-0.4,5.2-1.3,6.9c-0.9,1.7-2.1,3-3.8,3.9c-1.7,0.9-3.5,1.4-5.5,1.4c-3.2,0-5.7-1-7.7-3C140.9,48.7,139.9,45.8,139.9,42z
		 M143.9,42c0,2.9,0.6,5.1,1.9,6.5c1.3,1.4,2.8,2.2,4.8,2.2c1.9,0,3.5-0.7,4.7-2.2c1.3-1.4,1.9-3.7,1.9-6.6c0-2.8-0.6-4.9-1.9-6.3
		c-1.3-1.4-2.8-2.2-4.7-2.2c-1.9,0-3.5,0.7-4.8,2.1C144.5,36.9,143.9,39.1,143.9,42z"/>
	<linearGradient id="SVGID_4_" gradientUnits="userSpaceOnUse" x1="174.6338" y1="53.7626" x2="174.6338" y2="30.6679">
		<stop  offset="0" style="stop-color:#D2D2D2"/>
		<stop  offset="1" style="stop-color:#FFFFFF"/>
	</linearGradient>
	<path class="st7" d="M180.4,53.3v-3.3c-1.8,2.6-4.1,3.8-7.2,3.8c-1.3,0-2.6-0.3-3.7-0.8c-1.2-0.5-2-1.2-2.6-1.9
		c-0.6-0.8-1-1.7-1.2-2.8c-0.2-0.8-0.2-1.9-0.2-3.6v-14h3.8v12.5c0,2,0.1,3.3,0.2,4c0.2,1,0.8,1.8,1.5,2.4c0.8,0.6,1.7,0.9,2.9,0.9
		s2.2-0.3,3.2-0.9c1-0.6,1.7-1.4,2.1-2.4s0.6-2.5,0.6-4.4V30.7h3.8v22.6H180.4z"/>
	<linearGradient id="SVGID_5_" gradientUnits="userSpaceOnUse" x1="198.1953" y1="53.7626" x2="198.1953" y2="22.077">
		<stop  offset="0" style="stop-color:#D2D2D2"/>
		<stop  offset="1" style="stop-color:#FFFFFF"/>
	</linearGradient>
	<path class="st8" d="M204.4,53.3v-2.8c-1.4,2.2-3.5,3.4-6.3,3.4c-1.8,0-3.5-0.5-5-1.5s-2.7-2.4-3.5-4.2c-0.8-1.8-1.2-3.8-1.2-6.1
		c0-2.3,0.4-4.3,1.1-6.1c0.8-1.8,1.9-3.2,3.4-4.2c1.5-1,3.2-1.5,5-1.5c1.4,0,2.6,0.3,3.6,0.9s1.9,1.3,2.6,2.2V22.1h3.8v31.2H204.4z
		 M192.3,42c0,2.9,0.6,5.1,1.8,6.5c1.2,1.4,2.7,2.1,4.3,2.1c1.7,0,3.1-0.7,4.3-2.1c1.2-1.4,1.8-3.5,1.8-6.3c0-3.1-0.6-5.4-1.8-6.8
		c-1.2-1.4-2.7-2.2-4.4-2.2c-1.7,0-3.1,0.7-4.3,2.1C192.9,36.8,192.3,39,192.3,42z"/>
	<linearGradient id="SVGID_6_" gradientUnits="userSpaceOnUse" x1="240.2476" y1="53.7831" x2="240.2476" y2="21.5243">
		<stop  offset="0" style="stop-color:#D2D2D2"/>
		<stop  offset="1" style="stop-color:#FFFFFF"/>
	</linearGradient>
	<path class="st9" d="M225.3,38.1c0-5.2,1.4-9.2,4.2-12.2c2.8-2.9,6.4-4.4,10.8-4.4c2.9,0,5.5,0.7,7.8,2.1c2.3,1.4,4.1,3.3,5.3,5.8
		c1.2,2.5,1.8,5.2,1.8,8.4c0,3.2-0.6,6-1.9,8.5c-1.3,2.5-3.1,4.4-5.4,5.7c-2.3,1.3-4.9,1.9-7.6,1.9c-2.9,0-5.6-0.7-7.9-2.1
		c-2.3-1.4-4.1-3.4-5.3-5.8C225.9,43.4,225.3,40.8,225.3,38.1z M229.6,38.1c0,3.8,1,6.7,3,8.9s4.6,3.2,7.6,3.2
		c3.1,0,5.7-1.1,7.7-3.3c2-2.2,3-5.3,3-9.3c0-2.5-0.4-4.8-1.3-6.6c-0.9-1.9-2.1-3.4-3.8-4.4s-3.5-1.6-5.6-1.6c-2.9,0-5.4,1-7.5,3
		C230.6,30.1,229.6,33.4,229.6,38.1z"/>
	<linearGradient id="SVGID_7_" gradientUnits="userSpaceOnUse" x1="272.0713" y1="53.2519" x2="272.0713" y2="22.077">
		<stop  offset="0" style="stop-color:#D2D2D2"/>
		<stop  offset="1" style="stop-color:#FFFFFF"/>
	</linearGradient>
	<path class="st10" d="M260.3,53.3V22.1H272c2.4,0,4.3,0.3,5.7,0.9c1.4,0.6,2.6,1.6,3.4,2.9c0.8,1.3,1.2,2.7,1.2,4.1
		c0,1.3-0.4,2.6-1.1,3.8c-0.7,1.2-1.8,2.1-3.3,2.8c1.9,0.6,3.3,1.5,4.3,2.8c1,1.3,1.5,2.9,1.5,4.7c0,1.5-0.3,2.8-0.9,4.1
		c-0.6,1.3-1.4,2.2-2.3,2.9s-2,1.2-3.4,1.5c-1.4,0.3-3,0.5-5,0.5H260.3z M264.4,35.2h6.7c1.8,0,3.1-0.1,3.9-0.4
		c1-0.3,1.8-0.8,2.4-1.6c0.5-0.7,0.8-1.6,0.8-2.7c0-1-0.2-1.9-0.7-2.7c-0.5-0.8-1.2-1.3-2.1-1.6c-0.9-0.3-2.5-0.4-4.7-0.4h-6.2V35.2
		z M264.4,49.6h7.8c1.3,0,2.3,0,2.8-0.1c1-0.2,1.7-0.5,2.4-0.9c0.6-0.4,1.2-1,1.6-1.7c0.4-0.8,0.6-1.6,0.6-2.6c0-1.2-0.3-2.2-0.9-3
		c-0.6-0.9-1.4-1.5-2.5-1.8c-1.1-0.3-2.6-0.5-4.6-0.5h-7.2V49.6z"/>
	<linearGradient id="SVGID_8_" gradientUnits="userSpaceOnUse" x1="301.417" y1="53.2519" x2="301.417" y2="22.077">
		<stop  offset="0" style="stop-color:#D2D2D2"/>
		<stop  offset="1" style="stop-color:#FFFFFF"/>
	</linearGradient>
	<path class="st11" d="M289.5,53.3V22.1h11.8c2.1,0,3.7,0.1,4.7,0.3c1.5,0.3,2.8,0.7,3.8,1.5c1,0.7,1.9,1.7,2.5,3
		c0.6,1.3,0.9,2.7,0.9,4.3c0,2.7-0.8,4.9-2.5,6.7s-4.7,2.8-9.1,2.8h-8v12.7H289.5z M293.6,36.9h8.1c2.7,0,4.6-0.5,5.7-1.5
		s1.7-2.4,1.7-4.2c0-1.3-0.3-2.4-1-3.3s-1.5-1.5-2.6-1.8c-0.7-0.2-2-0.3-3.8-0.3h-8V36.9z"/>
</g>
</svg>
